<?xml version="1.0" encoding="UTF-8"?>
<svg xmlns="http://www.w3.org/2000/svg" viewBox="0 0 504 378" role="img" aria-label="Illustration of a house">
  <rect width="504" height="378" fill="#e4e9f2"/>
  <circle cx="428" cy="64" r="30" fill="#f7d774" opacity="0.9"/>
  <rect y="292" width="504" height="86" fill="#b8c6d8"/>
  <ellipse cx="88" cy="252" rx="34" ry="44" fill="#4c8f5d"/>
  <rect x="82" y="284" width="12" height="26" fill="#7a5230"/>
  <rect x="152" y="134" width="200" height="170" fill="#4f6272"/>
  <rect x="150" y="118" width="204" height="16" rx="4" fill="#2c3a47"/>
  <rect x="176" y="150" width="34" height="30" rx="3" fill="#eef1f6"/><rect x="234" y="150" width="34" height="30" rx="3" fill="#eef1f6"/><rect x="292" y="150" width="34" height="30" rx="3" fill="#eef1f6"/>
  <rect x="180" y="216" width="36" height="32" rx="3" fill="#eef1f6"/>
  <rect x="288" y="216" width="36" height="32" rx="3" fill="#eef1f6"/>
  <rect x="236" y="228" width="34" height="76" rx="3" fill="#d98841"/>
  <circle cx="262" cy="268" r="3" fill="#2c3a47"/>
  <rect x="140" y="300" width="224" height="8" rx="4" fill="#2c3a47" opacity="0.35"/>
  <ellipse cx="420" cy="250" rx="28" ry="38" fill="#5a9a68"/>
  <rect x="415" y="278" width="10" height="28" fill="#7a5230"/>
</svg>